<svg width="100" height="100" viewBox="0 0 100 100" fill="none" xmlns="http://www.w3.org/2000/svg">
<rect width="100" height="100" fill="#385601"/>
<path fill-rule="evenodd" clip-rule="evenodd" d="M60.1838 76.2288L60.0579 27.9098C59.7321 27.5843 59.0967 27.6826 58.8483 27.7551L57.1934 28.2675C56.9892 27.596 56.7241 26.9446 56.4015 26.3212C55.2273 24.0816 53.5112 22.8974 51.4338 22.8942H51.4273C51.2886 22.8942 51.1515 22.9071 51.0128 22.9184L50.9967 22.92C50.9366 22.8461 50.8742 22.7741 50.8096 22.7041C49.9063 21.7374 48.745 21.2653 47.3547 21.3056C44.6741 21.3829 42.0047 23.3196 39.8386 26.7594C38.3144 29.181 37.1579 32.2213 36.8273 34.5752L31.5483 36.2105C29.995 36.6987 29.9467 36.7471 29.7418 38.2116C29.5886 39.3201 25.5225 70.7685 25.5225 70.7685L59.5999 76.6622L60.1838 76.2272V76.2288ZM49.0192 23.5145C48.566 23.2164 48.0354 23.0779 47.4063 23.0908C43.2676 23.21 39.6579 29.6756 38.737 33.9839L42.7015 32.7562L43.4096 32.5371C43.9289 29.8013 45.2321 26.9624 46.937 25.1354C47.5331 24.4807 48.2367 23.9325 49.0176 23.5145H49.0192ZM45.3692 31.9297L51.0596 30.167C51.0773 28.6848 50.916 26.4936 50.1741 24.9468C49.3838 25.2723 48.7192 25.8427 48.2418 26.3534C46.9628 27.7277 45.9192 29.8239 45.3708 31.9297H45.3692ZM52.8418 29.616L55.487 28.7959C55.0644 27.4232 54.0612 25.1225 52.0273 24.7358C52.6596 26.3679 52.8225 28.2578 52.8418 29.616Z" fill="#95BF47"/>
<path d="M67.8195 31.5041C67.6162 31.488 63.6775 31.4267 63.6775 31.4267C63.6775 31.4267 60.3824 28.2269 60.0566 27.8999C59.9304 27.7836 59.7706 27.7103 59.6001 27.6904V76.6539L74.3662 72.982C74.3662 72.982 68.3404 32.2339 68.3017 31.9552C68.2831 31.8368 68.2253 31.7281 68.1376 31.6463C68.0499 31.5646 67.9373 31.5145 67.8178 31.5041H67.8195Z" fill="#5E8E3E"/>
<path d="M51.4161 39.1075L49.7 45.5264C49.7 45.5264 47.787 44.6547 45.5177 44.7981C42.1919 45.0076 42.1564 47.1069 42.1903 47.6338C42.3709 50.5017 49.9209 51.13 50.3451 57.8535C50.679 63.1429 47.5403 66.7632 43.0177 67.0468C37.5903 67.39 34.6016 64.187 34.6016 64.187L35.7516 59.2922C35.7516 59.2922 38.7596 61.5624 41.1661 61.4093C42.7403 61.311 43.3016 60.0318 43.2451 59.1263C43.008 55.3835 36.8596 55.6026 36.4709 49.4512C36.1451 44.2713 39.5435 39.0269 47.0451 38.5532C49.9354 38.3696 51.4161 39.1091 51.4161 39.1091" fill="white"/>
</svg>
