<svg width="100" height="100" viewBox="0 0 100 100" fill="none" xmlns="http://www.w3.org/2000/svg">
<rect width="100" height="100" fill="#F3F3F3"/>
<g clip-path="url(#clip0_1260_8642)">
<path fill-rule="evenodd" clip-rule="evenodd" d="M54.7887 38.3137C53.4684 39.0054 52.9767 40.1739 52.9767 43.4008C52.9767 43.4008 53.6452 42.7545 54.6369 42.3943C55.36 42.1332 55.9776 41.7341 56.3341 41.473C57.4498 40.6554 57.623 39.6035 57.623 37.8313C57.623 37.8313 55.8035 37.7822 54.7887 38.3137ZM46.9582 39.0696C45.8813 40.0187 45.5665 41.5317 45.5665 41.5317L42.0017 55.3437L39.0369 44.0391C38.748 42.8372 38.2276 41.3521 37.4035 40.3474C36.3545 39.0678 34.2221 38.9872 33.9952 38.9872C33.7674 38.9872 31.635 39.0678 30.585 40.3474C29.7619 41.3521 29.2415 42.8372 28.9526 44.0391L25.9878 55.3437L22.4221 41.5317C22.4221 41.5317 22.1082 40.0187 21.0313 39.0696C19.285 37.5308 16.6665 37.8595 16.6665 37.8595L23.4934 63.6715C23.4934 63.6715 25.7452 63.8345 26.873 63.2595C28.3526 62.5058 29.0572 61.9233 29.9535 58.4113C30.7517 55.2798 32.9841 46.0826 33.1924 45.428C33.2961 45.1048 33.4267 44.3317 33.9952 44.3317C34.5748 44.3317 34.6952 45.1039 34.7961 45.428C35.0008 46.0835 37.2369 55.2798 38.0359 58.4113C38.9322 61.9233 39.6359 62.5058 41.1165 63.2595C42.2434 63.8345 44.4952 63.6715 44.4952 63.6715L51.3221 37.8595C51.3221 37.8595 48.7045 37.5308 46.9582 39.0696ZM57.6208 42.0734C57.6208 42.0734 57.1939 42.7346 56.2189 43.279C55.5939 43.629 54.993 43.866 54.3485 44.1753C53.2689 44.6929 52.9763 45.2697 52.9763 46.1494V46.4438V47.8031V47.8401V48.1466V63.6716C52.9763 63.6716 54.6995 63.8901 55.8263 63.3151C57.2763 62.5762 57.6096 61.8633 57.6226 58.6531V43.0086L57.6208 43.0096V42.0734ZM74.6373 50.8282L83.2994 37.9448C83.2994 37.9448 79.6438 37.3226 77.8336 38.9698C76.6753 40.0245 75.3799 41.9208 75.3799 41.9208L72.1929 46.5152C72.0383 46.7541 71.8355 47.0143 71.5123 47.0143C71.1892 47.0143 70.9873 46.7541 70.8327 46.5152L67.6457 41.9208C67.6457 41.9208 66.3503 40.0245 65.192 38.9698C63.3818 37.3226 59.7262 37.9448 59.7262 37.9448L68.3873 50.8282L59.7485 63.6717C59.7485 63.6717 63.5559 64.1532 65.366 62.5041C66.5244 61.4504 67.6457 59.7356 67.6457 59.7356L70.8327 55.1421C70.9873 54.9022 71.1892 54.643 71.5123 54.643C71.8355 54.643 72.0383 54.9022 72.1929 55.1421L75.3799 59.7356C75.3799 59.7356 76.566 61.4504 77.7244 62.5041C79.5355 64.1532 83.2762 63.6717 83.2762 63.6717L74.6373 50.8282Z" fill="black"/>
</g>
<defs>
<clipPath id="clip0_1260_8642">
<rect width="66.6667" height="26.8519" fill="white" transform="translate(16.6665 37.5)"/>
</clipPath>
</defs>
</svg>
