<svg width="100" height="100" viewBox="0 0 100 100" fill="none" xmlns="http://www.w3.org/2000/svg">
<rect width="100" height="100" fill="#F3F3F3"/>
<path d="M74.8562 36.722C77.0494 40.7236 78.2974 45.3159 78.2974 50.2008C78.2974 60.5662 72.68 69.6158 64.3271 74.4859L72.9085 49.6744C74.5113 45.6661 75.0451 42.4611 75.0451 39.6112C75.0451 38.5768 74.9769 37.6168 74.8562 36.722ZM54.0738 37.0279C55.7653 36.9389 57.2894 36.761 57.2894 36.761C58.8033 36.5818 58.6248 34.3569 57.1102 34.4455C57.1102 34.4455 52.5593 34.8027 49.6215 34.8027C46.8609 34.8027 42.222 34.4455 42.222 34.4455C40.7068 34.3569 40.5292 36.6714 42.0437 36.761C42.0437 36.761 43.4769 36.9389 44.9908 37.0279L49.3678 49.0216L43.2184 67.4617L32.9875 37.0279C34.6803 36.9389 36.2028 36.761 36.2028 36.761C37.7157 36.5818 37.5371 34.3569 36.0232 34.4455C36.0232 34.4455 31.4733 34.8027 28.5352 34.8027C28.008 34.8027 27.3867 34.7898 26.727 34.7686C31.7508 27.1416 40.3857 22.1049 50.2018 22.1049C57.516 22.1049 64.176 24.9015 69.1744 29.4816C69.0533 29.4743 68.9353 29.4591 68.8106 29.4591C66.0507 29.4591 64.0924 31.8632 64.0924 34.4455C64.0924 36.761 65.4283 38.72 66.8523 41.0351C67.9207 42.9065 69.1687 45.3103 69.1687 48.7838C69.1687 51.1883 68.2438 53.9789 67.0308 57.8665L64.2276 67.2299L54.0738 37.0279ZM50.2018 78.299C47.4439 78.299 44.7822 77.8946 42.2643 77.1542L50.6952 52.6585L59.3308 76.3189C59.3877 76.4578 59.4574 76.5857 59.5318 76.7061C56.6115 77.7342 53.4736 78.299 50.2018 78.299ZM22.1059 50.2008C22.1059 46.1274 22.9796 42.2607 24.5388 38.7666L37.9412 75.4869C28.5679 70.9333 22.1059 61.3219 22.1059 50.2008ZM50.2018 18.9518C32.9707 18.9518 18.9521 32.97 18.9521 50.2008C18.9521 67.4323 32.9707 81.4521 50.2018 81.4521C67.4326 81.4521 81.4518 67.4323 81.4518 50.2008C81.4518 32.97 67.4326 18.9518 50.2018 18.9518Z" fill="#3F3C3C"/>
</svg>
