<svg width="166" height="36" viewBox="0 0 166 36" fill="none" xmlns="http://www.w3.org/2000/svg">
<path d="M35.9459 18.0494C35.8638 22.9954 34.0976 27.2694 30.5933 30.8152C26.9313 34.3458 22.5623 36.0775 17.4822 35.9973C12.696 35.8174 8.60809 34.025 5.20329 30.6526C1.68825 26.9855 -0.0800866 22.6117 0.0431346 17.5249C0.159871 12.7568 1.96495 8.67995 5.28112 5.26853C8.941 1.69889 13.3208 -0.0653393 18.429 0.00184883C23.2001 0.166568 27.2837 1.9373 30.6928 5.2837C34.1343 8.823 35.8724 13.0667 35.9459 18.0494ZM17.8843 34.9635C22.6164 34.892 26.607 33.2448 29.9362 29.9916C33.0816 26.7579 34.7396 22.8848 34.8866 18.3659C34.9277 13.7191 33.3734 9.69211 30.2107 6.29369C26.9399 2.94295 22.9709 1.19173 18.2972 1.04868C13.6688 1.01834 9.6652 2.58534 6.28634 5.75619C2.95937 9.03106 1.2213 13.0038 1.0743 17.6767C1.0462 22.3083 2.56809 26.3483 5.76103 29.699C9.07503 33.1733 13.1846 34.8746 17.8843 34.9635Z" fill="white"/>
<path d="M19.8147 22.2737C19.9595 22.1155 20.1022 21.9681 20.2341 21.8142C20.9431 20.9755 21.4014 20.0175 21.5679 18.9251C21.743 17.7894 21.5808 16.7014 21.1031 15.6589C20.8653 15.1409 20.5626 14.6619 20.193 14.2285C19.7174 13.6736 19.1467 13.2401 18.4981 12.9129C17.8691 12.5943 17.2032 12.4014 16.5007 12.3494C15.3657 12.2648 14.2957 12.4989 13.2948 13.0451C12.8278 13.3008 12.3976 13.6086 12.0215 13.9879C11.334 14.6814 10.8822 15.5094 10.6358 16.4522C10.5298 16.8618 10.4758 17.2801 10.4542 17.7049C10.4174 18.4613 10.5039 19.2004 10.733 19.9199C11.0076 20.7804 11.4832 21.5151 12.1231 22.148C12.7111 22.7288 13.3855 23.1688 14.1681 23.4376C14.6718 23.611 15.1906 23.702 15.7224 23.7258C16.0445 23.741 16.3623 23.7302 16.6801 23.6955C16.7125 23.6912 16.7449 23.6955 16.7839 23.6955C17.0195 24.2482 17.2551 24.7965 17.4994 25.3687C17.2205 25.399 16.9633 25.4359 16.706 25.4532C16.2607 25.4836 15.8154 25.4727 15.3701 25.4315C14.5443 25.3557 13.753 25.1563 12.9921 24.829C12.1685 24.4757 11.4378 23.9794 10.7871 23.3617C10.599 23.1818 10.4153 22.9954 10.2358 22.8069C10.1731 22.7397 10.1213 22.6617 10.0737 22.5815C9.64135 21.8446 9.28682 21.073 9.04254 20.2516C8.91716 19.8311 8.83069 19.4041 8.768 18.9706C8.76367 18.9381 8.76367 18.9056 8.76367 18.8731C8.76367 14.4517 8.76367 10.0303 8.76367 5.60671C8.76367 5.23176 8.98634 4.90232 9.32573 4.76578C9.67162 4.62707 10.0607 4.70509 10.3137 4.97168C10.4672 5.13206 10.5536 5.32279 10.5666 5.54603C10.5709 5.60671 10.5709 5.6674 10.5709 5.72808C10.5709 8.22922 10.5709 10.7325 10.5709 13.2336C10.5709 13.2878 10.5709 13.3442 10.5709 13.4352C10.6531 13.3442 10.7136 13.2792 10.772 13.212C11.4227 12.4707 12.1663 11.8465 13.0526 11.4044C13.8287 11.0164 14.6523 10.791 15.5171 10.7152C16.4358 10.635 17.3438 10.7 18.2344 10.9558C19.2137 11.2353 20.0827 11.7252 20.8502 12.3949C21.5354 12.9931 22.1148 13.678 22.558 14.4777C22.9795 15.2385 23.2476 16.0512 23.3751 16.9117C23.4594 17.486 23.4832 18.0625 23.4465 18.639C23.3448 20.2169 22.7958 21.617 21.7732 22.8264C21.4317 23.2295 21.0598 23.598 20.6491 23.9252C20.621 23.9469 20.5907 23.9664 20.5475 23.9967C20.3032 23.4137 20.0589 22.8415 19.8147 22.2737Z" fill="white"/>
<path d="M27.0959 16.8406C26.1037 16.8406 25.1374 16.8406 24.1624 16.8406C24.0608 16.2185 23.8922 15.6203 23.6436 15.0352C25.7189 15.0352 27.7769 15.0352 29.8587 15.0352C27.2321 21.0799 24.6142 27.1052 21.9941 33.1348C21.8623 33.1348 21.7326 33.1348 21.5964 33.1348C19.0195 27.1117 16.4427 21.0886 13.8594 15.0438C13.9242 15.0438 13.9696 15.0438 14.015 15.0438C15.9477 15.046 17.8803 15.0482 19.8151 15.0482C19.9059 15.0482 19.9577 15.0742 20.0031 15.1522C20.2842 15.6333 20.4939 16.1427 20.6301 16.6845C20.6409 16.7279 20.6452 16.7734 20.6538 16.8341C19.2962 16.8341 17.9538 16.8341 16.5897 16.8341C18.3278 20.9 20.055 24.9443 21.7974 29.0233C23.5679 24.9508 25.3254 20.9087 27.0959 16.8406Z" fill="white"/>
<path d="M43.1465 25.9669C43.1465 20.8176 43.1465 15.703 43.1465 10.5673C43.2332 10.5557 43.3142 10.5363 43.3933 10.5363C45.2422 10.5383 47.093 10.5131 48.9419 10.5595C50.0524 10.5866 51.1089 10.8514 51.9379 11.6884C53.5747 13.3371 53.2913 16.0877 51.348 17.3634C51.267 17.4156 51.1899 17.4736 51.0877 17.5432C51.4501 17.7075 51.7991 17.8428 52.1269 18.0206C54.4018 19.25 54.9648 22.2537 53.3068 24.2543C52.3775 25.3773 51.1552 25.9321 49.7381 25.9669C47.5981 26.021 45.4562 25.9881 43.3142 25.992C43.266 25.9901 43.2197 25.9785 43.1465 25.9669ZM44.6696 24.4379C44.7717 24.4457 44.8296 24.4553 44.8893 24.4553C46.1926 24.4553 47.4959 24.4804 48.7973 24.4457C49.4123 24.4283 50.0466 24.3722 50.6346 24.204C52.5375 23.659 53.2489 21.3588 52.0073 19.855C51.4097 19.1301 50.6057 18.73 49.6938 18.6817C48.0666 18.5947 46.4356 18.5986 44.8064 18.5657C44.7737 18.5657 44.739 18.585 44.6908 18.6005C44.685 18.6585 44.6715 18.7165 44.6715 18.7764C44.6696 20.6494 44.6696 22.5243 44.6696 24.4379ZM44.6888 16.9826C45.7222 16.9826 46.7325 17.0078 47.7389 16.973C48.3192 16.9536 48.9091 16.8937 49.4701 16.7545C50.6635 16.4569 51.4309 15.3802 51.3788 14.1838C51.3287 13.0588 50.6308 12.3069 49.2947 12.1407C48.3346 12.0208 47.3533 12.0672 46.3796 12.0498C45.8225 12.0401 45.2653 12.0479 44.6888 12.0479C44.6888 13.7005 44.6888 15.3165 44.6888 16.9826Z" fill="white"/>
<path d="M100.72 16.2467C100.72 14.0896 100.72 12.0349 100.72 9.95508C101.216 9.95508 101.684 9.95508 102.184 9.95508C102.184 10.1155 102.184 10.2605 102.184 10.4054C102.184 13.6721 102.201 16.9368 102.178 20.2034C102.157 23.1511 100.487 25.1865 97.7936 25.8746C94.4949 26.7193 91.2328 24.7806 90.4481 21.512C89.6577 18.2183 91.6897 14.8415 94.919 14.1747C97.0263 13.7397 98.8694 14.3042 100.375 15.8776C100.47 15.9723 100.558 16.0708 100.72 16.2467ZM100.819 20.1049C100.844 17.422 98.9157 15.4059 96.311 15.3885C93.9281 15.3731 91.8208 17.4529 91.7958 19.8458C91.7688 22.5461 93.7488 24.6511 96.3168 24.6511C98.8116 24.6511 100.795 22.6467 100.819 20.1049Z" fill="white"/>
<path d="M74.5651 26.0999C74.0696 26.0999 73.5837 26.0999 73.0478 26.0999C73.0478 25.3035 73.0478 24.5091 73.0478 23.6992C72.9764 23.7243 72.9475 23.7263 72.9398 23.7398C71.4514 26.326 66.8379 27.0741 64.2467 24.2037C61.243 20.8752 62.741 15.378 67.0037 14.2414C70.686 13.2595 74.2913 15.7298 74.5477 19.528C74.6942 21.6754 74.594 23.8384 74.6056 25.9936C74.6056 26.0187 74.5882 26.04 74.5651 26.0999ZM72.9128 19.9822C72.7663 19.296 72.7258 18.5654 72.4559 17.9314C71.7213 16.213 69.7009 15.2117 67.8751 15.5577C65.0796 16.0893 63.4505 19.0911 64.4993 21.7663C65.0102 23.0671 65.9298 24.0394 67.235 24.4202C69.9631 25.2166 72.8781 22.8565 72.9128 19.9822Z" fill="white"/>
<path d="M153.034 20.0776C153.034 23.4873 150.48 26.0639 147.098 26.0658C143.693 26.0677 141.148 23.495 141.148 20.0525C141.15 16.6699 143.743 14.0488 147.09 14.0469C150.466 14.0449 153.034 16.6525 153.034 20.0776ZM147.094 15.5101C144.648 15.5101 142.662 17.5571 142.66 20.0834C142.658 22.6774 144.584 24.6644 147.098 24.6644C149.61 24.6644 151.523 22.7006 151.525 20.1201C151.527 17.5571 149.558 15.5101 147.094 15.5101Z" fill="white"/>
<path d="M109.594 10.6096C110.137 10.6096 110.635 10.5941 111.13 10.6231C111.225 10.6289 111.346 10.7855 111.396 10.8995C112.343 13.0876 113.28 15.2795 114.217 17.4714C114.886 19.0371 115.555 20.6028 116.224 22.1684C116.266 22.267 116.32 22.3579 116.388 22.4932C116.968 21.1633 117.531 19.8721 118.096 18.5809C119.208 16.0275 120.325 13.478 121.429 10.9208C121.532 10.6849 121.647 10.5883 121.909 10.6018C122.345 10.625 122.783 10.6076 123.267 10.6076C123.207 10.7603 123.168 10.8724 123.12 10.9807C120.982 15.898 118.842 20.8154 116.696 25.7289C116.638 25.8603 116.488 25.9512 116.382 26.0614C116.274 25.9531 116.12 25.8661 116.064 25.7366C113.951 20.8212 111.846 15.9019 109.74 10.9826C109.694 10.8763 109.654 10.7642 109.594 10.6096Z" fill="white"/>
<path d="M78.9231 26.039C78.4045 26.039 77.9341 26.039 77.4444 26.039C77.4328 25.9597 77.4155 25.8921 77.4155 25.8225C77.4097 23.7891 77.3692 21.7537 77.4193 19.7203C77.4386 18.9394 77.5735 18.1353 77.8088 17.3911C78.3524 15.6688 79.6287 14.714 81.3716 14.4511C82.2006 14.3255 83.0817 14.3023 83.9068 14.4356C85.8194 14.7468 87.059 16.125 87.2518 18.0579C87.3521 19.0611 87.3771 20.074 87.3926 21.083C87.4157 22.5945 87.3983 24.1041 87.3983 25.6157C87.3983 25.7471 87.3983 25.8785 87.3983 26.0332C86.8971 26.0332 86.4286 26.0332 85.9119 26.0332C85.9119 25.8901 85.9119 25.7471 85.9119 25.6041C85.9003 23.4237 85.9061 21.2434 85.8618 19.0631C85.8502 18.5141 85.7268 17.9516 85.5629 17.422C85.3702 16.8015 84.9248 16.3492 84.2924 16.1559C82.9024 15.7307 81.5393 15.7075 80.2572 16.5251C79.5111 17.0006 79.1853 17.6849 79.0889 18.5586C78.8228 20.9283 78.9655 23.3039 78.9231 25.6756C78.9212 25.78 78.9231 25.8882 78.9231 26.039Z" fill="white"/>
<path d="M165.634 26.0422C165.17 26.0422 164.72 26.0422 164.213 26.0422C164.213 25.8953 164.213 25.7542 164.213 25.615C164.206 23.483 164.217 21.349 164.177 19.217C164.165 18.641 164.057 18.0534 163.895 17.4987C163.681 16.7622 163.153 16.277 162.399 16.0838C161.084 15.7474 159.796 15.7358 158.597 16.4935C157.818 16.9864 157.491 17.6919 157.388 18.6159C157.122 21.0127 157.277 23.4115 157.223 25.8083C157.221 25.8798 157.207 25.9494 157.196 26.0364C156.714 26.0364 156.243 26.0364 155.725 26.0364C155.725 25.9011 155.725 25.7716 155.725 25.6421C155.713 23.8386 155.667 22.0352 155.703 20.2337C155.721 19.3891 155.831 18.5308 156.018 17.7074C156.399 16.0161 157.535 15.0032 159.17 14.5509C160.238 14.2552 161.335 14.1972 162.42 14.4582C164.29 14.9105 165.486 16.2712 165.569 18.2699C165.675 20.8233 165.642 23.3844 165.667 25.9417C165.667 25.9649 165.653 25.9861 165.634 26.0422Z" fill="white"/>
<path d="M128.006 24.4494C128.322 24.0899 128.625 23.7478 128.889 23.4482C129.361 23.7826 129.778 24.1479 130.256 24.3992C131.199 24.894 132.255 24.6988 132.936 23.972C133.647 23.2124 133.618 22.099 132.803 21.4553C132.282 21.0436 131.675 20.744 131.11 20.3884C130.616 20.0791 130.098 19.8008 129.643 19.4412C128.374 18.4381 128.301 16.826 128.806 15.7416C129.379 14.5142 130.794 13.8319 132.197 14.089C133.242 14.2803 134.065 14.8563 134.844 15.6005C134.495 15.9059 134.168 16.192 133.822 16.4935C133.572 16.3118 133.252 16.049 132.905 15.8344C132.361 15.5 131.767 15.3338 131.127 15.4981C129.872 15.8209 129.442 17.1449 130.339 18.0747C130.751 18.5038 131.303 18.8034 131.81 19.1339C132.4 19.5186 133.04 19.8298 133.605 20.2453C134.713 21.063 135.058 22.2073 134.748 23.5158C134.437 24.8283 133.568 25.6788 132.261 25.961C130.728 26.2915 129.373 25.8643 128.255 24.7452C128.17 24.6601 128.1 24.5616 128.006 24.4494Z" fill="white"/>
<path d="M57.7127 26.0234C57.196 26.0234 56.7275 26.0234 56.2031 26.0234C56.2031 25.8707 56.2031 25.7315 56.2031 25.5904C56.2031 23.6536 56.2031 21.7149 56.2031 19.7781C56.2051 17.6016 57.8149 15.255 59.8412 14.4741C60.6085 14.1784 61.2601 14.246 61.9831 14.7119C61.7614 15.0714 61.5493 15.4387 61.3102 15.7885C61.264 15.8562 61.102 15.8929 61.0095 15.8736C60.4909 15.7653 60.0359 15.9142 59.6445 16.2312C58.5899 17.0874 57.8747 18.1544 57.8303 19.5519C57.7667 21.5467 57.7513 23.5453 57.7146 25.5421C57.7088 25.6967 57.7127 25.8513 57.7127 26.0234Z" fill="white"/>
<path d="M137.209 14.6309C137.681 14.6309 138.15 14.6309 138.641 14.6309C138.641 18.4407 138.641 22.235 138.641 26.0409C138.159 26.0409 137.699 26.0409 137.209 26.0409C137.209 22.2427 137.209 18.4484 137.209 14.6309Z" fill="white"/>
<path d="M124.605 26.0342C124.605 22.2321 124.605 18.4475 124.605 14.6357C125.08 14.6357 125.546 14.6357 126.036 14.6357C126.036 18.432 126.036 22.2244 126.036 26.0342C125.56 26.0342 125.093 26.0342 124.605 26.0342Z" fill="white"/>
<path d="M126.534 11.1125C126.54 11.7929 125.993 12.3573 125.32 12.3611C124.657 12.3669 124.088 11.7948 124.09 11.1241C124.09 10.4649 124.634 9.91212 125.291 9.90052C125.975 9.89085 126.531 10.4321 126.534 11.1125Z" fill="white"/>
<path d="M136.719 11.1356C136.715 10.4397 137.245 9.90042 137.931 9.90235C138.612 9.90428 139.156 10.4552 139.152 11.1375C139.148 11.7947 138.606 12.3436 137.947 12.361C137.282 12.3804 136.723 11.8217 136.719 11.1356Z" fill="white"/>
</svg>
